<svg xmlns="http://www.w3.org/2000/svg" width="1099.905" height="654.417" viewBox="0 0 1099.905 654.417">
  <g id="Group_252" data-name="Group 252" transform="translate(-3073.468 -141.194)">
    <g id="Group_241" data-name="Group 241" opacity="0.104">
      <path id="Path_313" data-name="Path 313" d="M3289.977,306.408a539.7,539.7,0,0,0,119.113,40.556c41.064,8.972,83.009,13.733,124.992,15.274,42.63,1.565,86.634,1.539,128.464-7.761,36.274-8.064,71.814-24.755,96.641-53.1,23.645-27,35.2-64.465,25.93-99.755-4.256-16.207-13.069-31.262-26.1-41.934a82.246,82.246,0,0,0-42.566-18.015c-15.155-1.747-31.045,1.245-43.9,9.662-14.385,9.417-24.847,25.9-20.078,43.476,4.848,17.871,21.278,31.458,34.822,42.953a305.7,305.7,0,0,0,47.516,33.131,307.744,307.744,0,0,0,52.4,23.417c18.928,6.417,38.314,10.489,58.029,13.6,36.956,5.823,81.369,12.986,99.591,50.563a49.352,49.352,0,0,1,4.924,24.422c-.182,3.215,4.818,3.2,5,0,.921-16.243-6.105-31.434-16.843-43.311-11.927-13.193-27.67-21.7-44.5-26.945-19.476-6.076-39.864-8.171-59.882-11.7a304.133,304.133,0,0,1-54.768-14.95,300.213,300.213,0,0,1-95.332-58.249c-12.784-11.6-30.152-27.336-26.826-46.576,2.872-16.617,18.793-28.294,34.139-32.63,29.9-8.448,64.076,6.168,80.176,32.325,18.794,30.533,15.011,70.976-3.306,100.771-18.717,30.445-50.53,50.889-83.959,61.891-39.752,13.082-82.385,14.518-123.887,14.263-41-.252-82.038-3.382-122.453-10.383-40.037-6.935-79.483-17.653-117.138-32.994q-14.032-5.718-27.681-12.318c-2.886-1.39-5.425,2.92-2.524,4.318Z" fill="#327e96"/>
    </g>
    <g id="Group_249" data-name="Group 249">
      <path id="Path_314" data-name="Path 314" d="M4157.861,752.333c0,6.975-24.321,12.87-57.768,14.8-7.532.436-15.535.671-23.816.671-8.533,0-16.754-.253-24.486-.714-33.1-1.968-57.1-7.837-57.1-14.76,0-7.2,25.949-13.253,61.085-14.977,6.548-.323,13.419-.5,20.5-.5,9.735,0,19.079.322,27.743.923C4135.421,739.933,4157.861,745.637,4157.861,752.333Z" fill="#1a657c"/>
      <g id="Group_242" data-name="Group 242">
        <path id="Path_315" data-name="Path 315" d="M4121.352,650.669l30.8-230.05-59.844-8.178L3900.418,627.48l-4.441,33.16,172.641,23.119-7.175,53.6-3.988,29.737c7.732.461,15.952.714,24.486.714,8.281,0,16.283-.235,23.816-.671l3.927-29.354,6.383-47.666,52.02,6.966,5.286-39.446Zm-169.219-22.657.157-1.15L4060.1,512.7c12.591-15.779,23.877-30.556,38.218-50.75l1.716.227q-5.616,28.932-9.518,58.081L4073.9,644.313Z" fill="#6cb6d3"/>
      </g>
      <g id="Group_243" data-name="Group 243">
        <path id="Path_316" data-name="Path 316" d="M4115.689,650.669l30.921-230.957-54.3-7.271L3894.754,627.48l-4.441,33.16,172.641,23.119-7.175,53.6-3.988,29.737c7.732.461,15.953.714,24.486.714,8.281,0,16.284-.235,23.816-.671l3.927-29.354,6.383-47.666,52.021,6.966,5.285-39.446ZM3946.47,628.012l.157-1.15L4054.438,512.7c12.592-15.779,23.877-30.556,38.218-50.75l1.716.227q-5.616,28.932-9.518,58.081L4068.24,644.313Z" fill="#fbffff"/>
      </g>
      <path id="Path_317" data-name="Path 317" d="M3353.624,752.333c0,6.992-24.486,12.9-58.1,14.821-7.437.426-15.326.653-23.494.653-8.49,0-16.684-.244-24.382-.706-33.142-1.968-57.2-7.837-57.2-14.768s24.059-12.8,57.2-14.768c7.7-.462,15.892-.706,24.382-.706,8.168,0,16.057.227,23.494.653C3329.138,739.428,3353.624,745.341,3353.624,752.333Z" fill="#1a657c"/>
      <g id="Group_244" data-name="Group 244">
        <path id="Path_318" data-name="Path 318" d="M3301.142,654.858V421.845h-54.8L3079.085,661.206v33.455h174.182V767.1c7.7.462,15.892.706,24.382.706,8.168,0,16.057-.227,23.493-.653V694.661h52.482v-39.8Zm-170.725,0v-1.15l91.711-127.465c10.38-17.3,19.61-33.455,31.139-55.373H3255q-1.723,29.415-1.733,58.83V654.858Z" fill="#6cb6d3"/>
      </g>
      <g id="Group_245" data-name="Group 245">
        <path id="Path_319" data-name="Path 319" d="M3295.526,654.858V421.845h-54.8l-167.26,239.361v33.455H3247.65V767.1c7.7.462,15.892.706,24.382.706,8.168,0,16.057-.227,23.494-.653V694.661h52.482v-39.8Zm-170.725,0v-1.15l91.71-127.465c10.38-17.3,19.61-33.455,31.139-55.373h1.733q-1.724,29.415-1.733,58.83V654.858Z" fill="#fbffff"/>
      </g>
      <path id="Path_320" data-name="Path 320" d="M3922.917,748.127c0,6.923-8.7,13.506-24.347,19.436-2.185.836-4.51,1.646-6.966,2.455-22.771,7.454-56.81,13.75-98.276,18.226-43.139,4.667-94.306,7.367-149.174,7.367s-106.043-2.7-149.174-7.367c-41.013-4.432-74.773-10.632-97.536-17.991-2.455-.792-4.771-1.593-6.966-2.412-16.109-6-25.087-12.678-25.087-19.714s8.978-13.715,25.087-19.723c2.2-.819,4.511-1.62,6.966-2.412,22.763-7.35,56.523-13.558,97.536-17.991,43.131-4.667,94.3-7.367,149.174-7.367s106.035,2.7,149.174,7.367c41.466,4.485,75.505,10.781,98.276,18.226q3.684,1.215,6.966,2.455C3914.218,734.621,3922.917,741.2,3922.917,748.127Z" fill="#1a657c"/>
      <g id="Group_246" data-name="Group 246">
        <path id="Path_321" data-name="Path 321" d="M3898.57,692.066v75.5c-2.185.836-4.51,1.646-6.966,2.455V695.549H3822.56a35.827,35.827,0,0,1-35.789-35.789v-6.87a35.827,35.827,0,0,1,35.789-35.79h72.527a3.484,3.484,0,0,1,0,6.967H3822.56a28.857,28.857,0,0,0-28.823,28.823v6.87a28.857,28.857,0,0,0,28.823,28.823h72.527A3.482,3.482,0,0,1,3898.57,692.066Z" fill="#1d1e1e"/>
        <circle id="Ellipse_59" data-name="Ellipse 59" cx="27.763" cy="27.763" r="27.763" transform="translate(3880.844 589.338)" fill="#1d1e1e"/>
        <ellipse id="Ellipse_60" data-name="Ellipse 60" cx="12.686" cy="4.914" rx="12.686" ry="4.914" transform="translate(3895.977 601.87)" fill="#fff"/>
        <ellipse id="Ellipse_61" data-name="Ellipse 61" cx="12.686" cy="4.914" rx="12.686" ry="4.914" transform="translate(3895.977 622.557)" fill="#fff"/>
      </g>
      <g id="Group_247" data-name="Group 247">
        <path id="Path_322" data-name="Path 322" d="M3502.278,656.077v6.87a35.827,35.827,0,0,1-35.789,35.789h-69.045v71.517c-2.455-.792-4.771-1.593-6.966-2.412V695.253a3.482,3.482,0,0,1,3.483-3.483h72.528a28.858,28.858,0,0,0,28.823-28.823v-6.87a28.858,28.858,0,0,0-28.823-28.823h-72.528a3.484,3.484,0,0,1,0-6.967h72.528A35.828,35.828,0,0,1,3502.278,656.077Z" fill="#1d1e1e"/>
      </g>
      <path id="Path_323" data-name="Path 323" d="M3793.328,690.046v98.2c-43.139,4.667-94.306,7.367-149.174,7.367s-106.043-2.7-149.174-7.367v-98.2a149.174,149.174,0,0,1,298.348,0Z" fill="#fad01a"/>
      <path id="Path_324" data-name="Path 324" d="M3795.7,690.046v98.2c-43.138,4.667-94.3,7.367-149.173,7.367q-4.768,0-9.492-.035c50.993-.314,98.494-2.961,138.933-7.332v-98.2a149.2,149.2,0,0,0-139.307-148.852q4.884-.325,9.866-.322A149.188,149.188,0,0,1,3795.7,690.046Z" fill="#fff"/>
      <circle id="Ellipse_62" data-name="Ellipse 62" cx="21.227" cy="21.227" r="21.227" transform="translate(3564.388 662.767)" fill="#41b2b5"/>
      <circle id="Ellipse_63" data-name="Ellipse 63" cx="21.227" cy="21.227" r="21.227" transform="translate(3673.724 662.767)" fill="#41b2b5"/>
      <rect id="Rectangle_51" data-name="Rectangle 51" width="340.486" height="48.895" rx="12.89" transform="translate(3473.02 656.326)" fill="#ff7b7d"/>
      <rect id="Rectangle_52" data-name="Rectangle 52" width="315.657" height="48.895" rx="12.412" transform="translate(3485.434 656.326)" fill="#c8253a"/>
      <rect id="Rectangle_53" data-name="Rectangle 53" width="293.977" height="139.486" rx="58.456" transform="translate(3496.274 611.031)" fill="#499aba"/>
      <rect id="Rectangle_54" data-name="Rectangle 54" width="265.619" height="112.176" rx="49.83" transform="translate(3510.453 624.686)" fill="#327e96"/>
      <circle id="Ellipse_64" data-name="Ellipse 64" cx="21.227" cy="21.227" r="21.227" transform="translate(3564.831 659.546)" fill="#499aba"/>
      <circle id="Ellipse_65" data-name="Ellipse 65" cx="21.227" cy="21.227" r="21.227" transform="translate(3674.167 659.546)" fill="#499aba"/>
      <rect id="Rectangle_55" data-name="Rectangle 55" width="10.286" height="34.286" transform="translate(3638.568 514.03)" fill="#fece2c"/>
      <circle id="Ellipse_66" data-name="Ellipse 66" cx="19.73" cy="19.73" r="19.73" transform="translate(3624.424 482.966)" fill="#fece2c"/>
      <circle id="Ellipse_67" data-name="Ellipse 67" cx="21.227" cy="21.227" r="21.227" transform="translate(3566.925 659.546)" fill="#f3ffff"/>
      <circle id="Ellipse_68" data-name="Ellipse 68" cx="21.227" cy="21.227" r="21.227" transform="translate(3676.26 659.546)" fill="#f3ffff"/>
      <circle id="Ellipse_69" data-name="Ellipse 69" cx="10.835" cy="10.835" r="10.835" transform="translate(3575.223 666.419)" fill="#1d1e1e"/>
      <circle id="Ellipse_70" data-name="Ellipse 70" cx="9.526" cy="9.526" r="9.526" transform="translate(3692.904 673.337)" fill="#1d1e1e"/>
      <path id="Rectangle_56" data-name="Rectangle 56" d="M4.147,0H17.441A12.869,12.869,0,0,1,30.31,12.869V30.35A12.869,12.869,0,0,1,17.441,43.219H4.147A4.147,4.147,0,0,1,0,39.072V4.147A4.147,4.147,0,0,1,4.147,0Z" transform="translate(3372.952 603.076)" fill="#1d1e1e"/>
      <g id="Group_248" data-name="Group 248">
        <rect id="Rectangle_57" data-name="Rectangle 57" width="28.959" height="5.748" rx="2.874" transform="translate(3353.621 612.306)" fill="#1d1e1e"/>
        <rect id="Rectangle_58" data-name="Rectangle 58" width="28.959" height="5.748" rx="2.874" transform="translate(3353.621 631.318)" fill="#1d1e1e"/>
      </g>
      <g id="Group_334" data-name="Group 334" transform="translate(2997.468 69.72)">
        <g id="Group_333" data-name="Group 333" transform="translate(780.123 412.867)">
          <path id="Path_124" data-name="Path 124" d="M2227.5,1185.341c-4.989-18.885-4.954-64.079-91.37-27.234-41.3,17.608-70.808,49.873-65.82,68.759,1.263,4.78,4.722,8.733,9.884,11.79l-3.911,20.241,18.742-14.795c16.352,3.524,39,2.515,62.913-3.8C2201.344,1228.831,2232.488,1204.226,2227.5,1185.341Z" transform="translate(-2069.76 -1144.068)" fill="#f5c444"/>
          <path id="Path_125" data-name="Path 125" d="M2139.693,1186.709c-1.569,1.1,78.959-41.607,100.229-21.128a1.06,1.06,0,0,0,1.689-1.24C2234.808,1151.494,2213.688,1134.7,2139.693,1186.709Z" transform="translate(-2100.781 -1147.214)" fill="#fff"/>
        </g>
        <text id="ooops_" data-name="ooops!" transform="translate(814.223 502.191) rotate(-25)" fill="#1d1e1e" font-size="35" font-family="PublicSans-Bold, Public Sans" font-weight="700"><tspan x="0" y="0">ooops!</tspan></text>
      </g>
    </g>
    <g id="Group_250" data-name="Group 250" opacity="0.104">
      <path id="Path_325" data-name="Path 325" d="M3328.627,355.617q21.686,8.832,44.165,15.506,22.338,6.624,45.247,11.061,23.089,4.473,46.543,6.711,23.307,2.229,46.758,2.188,23.413-.047,46.746-2.394,2.855-.288,5.706-.612a2.574,2.574,0,0,0,2.5-2.5,2.516,2.516,0,0,0-2.5-2.5q-23.153,2.615-46.484,2.957-23.3.338-46.553-1.588-23.118-1.913-45.972-6.067-22.923-4.17-45.371-10.542-22.412-6.367-44.129-14.906-2.67-1.051-5.327-2.135a2.515,2.515,0,0,0-3.075,1.746,2.561,2.561,0,0,0,1.746,3.075Z" fill="#327e96"/>
    </g>
    <g id="Group_251" data-name="Group 251" opacity="0.104">
      <path id="Path_326" data-name="Path 326" d="M3900.432,291.9a71.088,71.088,0,0,1,42.847,25.321,67.64,67.64,0,0,1,7.743,12.066c1.451,2.873,5.766.344,4.317-2.524a75.8,75.8,0,0,0-39.176-35.584,70.4,70.4,0,0,0-14.4-4.1,2.573,2.573,0,0,0-3.076,1.746,2.522,2.522,0,0,0,1.746,3.075Z" fill="#327e96"/>
    </g>
  </g>
</svg>
