<svg xmlns="http://www.w3.org/2000/svg" width="30.064px" height="30.909px" viewBox="0 0 30.064 30.909">
  <g id="bannerBlack" transform="translate(-78.71 -73.9)">
    <path id="path16" d="M110.226,87.132l-.728-.747a1.48,1.48,0,0,1-1.249,1.348l.745.694,26.726,24.916Zm1.764,7.221v14.874a1.47,1.47,0,0,1,1.987-.133V99.115l16.1,15.7h2.775Zm18.759-3.436a1.479,1.479,0,0,1-1.029-.413V100.57l-15.809-15.7h-3.062l20.859,20.419V90.56A1.47,1.47,0,0,1,130.749,90.917Z" transform="translate(-26.948 -10.007)" fill="#349ea3"/>
    <path id="path18" d="M81.077,73.9a2.365,2.365,0,1,0,2.363,2.369h0A2.37,2.37,0,0,0,81.077,73.9Zm.226,3.821a1.388,1.388,0,0,1-.226.018,1.481,1.481,0,1,1,1.479-1.481v.116A1.48,1.48,0,0,1,81.3,77.721Z" fill="#349ea3"/>
    <path id="path20" d="M340.7,110a2.365,2.365,0,0,0,0,4.728,2.321,2.321,0,0,0,.96-.2A2.363,2.363,0,0,0,340.7,110Zm.96,3.488a1.479,1.479,0,1,1,.519-1.124,1.479,1.479,0,0,1-.519,1.124Z" transform="translate(-236.903 -32.932)" fill="#349ea3"/>
    <path id="path22" d="M139.3,347.3a2.37,2.37,0,1,0,1.444,2.178A2.369,2.369,0,0,0,139.3,347.3Zm-.926,3.657a1.479,1.479,0,1,1,1.48-1.479,1.479,1.479,0,0,1-1.48,1.479Z" transform="translate(-52.262 -249.235)" fill="#349ea3"/>
  </g>
</svg>
