<svg id="tick" xmlns="http://www.w3.org/2000/svg" xmlns:xlink="http://www.w3.org/1999/xlink" width="31.508" height="27.39" viewBox="0 0 31.508 27.39">
  <defs>
    <linearGradient id="linear-gradient" x1="0.127" y1="0.71" x2="0.872" y2="-0.147" gradientUnits="objectBoundingBox">
      <stop offset="0" stop-color="#1a44b7"/>
      <stop offset="1" stop-color="#4760ff"/>
    </linearGradient>
  </defs>
  <path id="Path_89664" data-name="Path 89664" d="M24.343,21.425l-2.5,1.733L3.458,10.452a.259.259,0,0,0-.007-.075V6.988Zm-5.132-16.4c-1.11.761-2.231,1.507-3.341,2.267a.3.3,0,0,1-.4,0c-1.372-.955-2.752-1.9-4.125-2.85Q9.173,2.939,7.008,1.425L4.959,0H0C.263.184.48.339.7.49L4.585,3.185,8.427,5.859c1.205.838,2.408,1.681,3.615,2.518,1.145.794,2.294,1.58,3.439,2.376a.252.252,0,0,0,.338,0c.925-.633,1.859-1.257,2.779-1.89q3.435-2.354,6.864-4.715l5-3.416C30.8.5,31.148.256,31.508,0H26.534Q22.872,2.512,19.211,5.026ZM3.477,15.439a.371.371,0,0,0-.026.066v3.328a.2.2,0,0,0,.018.073L15.742,27.39h.012l2.5-1.732ZM28,7l-9.134,6.317a.8.8,0,0,0,.1.108q1.159.821,2.319,1.634a.135.135,0,0,0,.083.015l6.614-4.579A.253.253,0,0,0,28,10.429ZM28,15.572c-1.037.715-2.038,1.407-3.05,2.108l2.373,1.682.677-.47Z" fill="url(#linear-gradient)"/>
</svg>
